<svg id="final_svg" viewBox="118.4381332397461 371.45721435546875 853.0797119140625 334.47784423828125" xmlns="http://www.w3.org/2000/svg" xmlns:xlink="http://www.w3.org/1999/xlink" xml:space="preserve">
      <g id="png_group" transform="translate(118.43299999999999, 371.4576) scale(1.162)" opacity="1">
      <g height="334.47007999999994" width="366.03" transform="rotate(0)">
                  <style type="text/css">.st0{fill:#F6AD17;}	.st1{fill:#E12F80;}	.st2{fill:#7F509F;}</style>
          <g id="color_index_2" fill="rgba(255, 207, 6, 1)">
                          <path d="M194.46,250.38c-3.22-5.56-7.15-10.66-11.64-15.26c-12.45-12.73-36.18-37.69-37.82-44.61		c-2.24-9.41,3.92-10.24,7.94-8.79c4.03,1.45,32.69,24.86,34.1,22.04c1.41-2.82-37.68-52.2-24.84-61.64		c12.84-9.44,39.21,44.79,45.83,44.07c6.62-0.72-28.62-73.24-8.31-75.3s27.11,69.85,36.65,62.04c2.95-2.41-6.42-51.75,10.68-56.15		s5.74,83.41,27.29,90.92c6.22,2.17,9.34-39.45,31.55-44.77c3.33-0.8,6.78,1.16,8.15,4.3c0.61,1.4,1.01,3.16,0.94,5.37		c-0.24,7.6-10.87,23.53-12.53,57.29s-36.4,52.9-53.59,57.16C232.96,290.99,211.93,280.55,194.46,250.38z"></path>
                      </g>
          <g id="color_index_1" fill="rgba(249, 249, 237, 1)">
                          <path d="M85.69,265.9c-5.7-2.96-11.76-5.16-18.01-6.63c-17.33-4.07-50.75-12.41-55.85-17.36		c-6.94-6.74-2.19-10.75,1.99-11.68s40.93,3.45,40.6,0.31c-0.33-3.14-59.8-23.84-54.02-38.7s57.12,16.77,62.32,12.61		c5.2-4.16-63.44-46.47-47.4-59.09s60.35,44.41,64.21,32.7c1.19-3.62-33.18-40.23-21.1-53.12s49.58,67.31,71.8,62.09		c6.41-1.51-13.28-38.3,2.61-54.71c2.38-2.46,6.35-2.66,9.18-0.74c1.26,0.85,2.55,2.13,3.67,4.03c3.87,6.55,3.44,25.69,20.15,55.07		s-2.35,64.17-14.57,76.99C139.96,279.52,116.61,281.99,85.69,265.9z"></path>
                      </g>
          <g id="color_index_0" fill="rgba(105, 0, 176, 1)">
                          <path d="M206.27,138.41c2.69-5.83,6.14-11.28,10.19-16.26c11.22-13.82,32.56-40.86,33.56-47.9		c1.36-9.58-4.84-9.84-8.72-8.02c-3.88,1.82-30.27,27.76-31.93,25.08s32.72-55.44,19.07-63.66c-13.65-8.22-34.93,48.2-41.59,48.09		C180.2,75.63,208.62,0.18,188.21,0s-20.58,72.05-30.8,65.15c-3.16-2.13,1.64-52.12-15.8-54.93s1.95,83.58-18.82,93.04		c-5.99,2.73-12.93-38.42-35.53-41.68c-3.39-0.49-6.65,1.78-7.72,5.03c-0.48,1.45-0.72,3.24-0.44,5.43		c0.94,7.55,12.99,22.43,17.74,55.89c4.76,33.47,41.11,49.33,58.62,51.99C171.67,182.39,191.65,170.06,206.27,138.41z"></path>
                      </g>
              </g>
    </g>
    <g id="text_group" transform="rotate(0)" opacity="1">
      <g id="text_layer_1_0" fill="rgba(249, 249, 237, 1)" transform="translate(497.712, 505.13699999999994)">
                  <path d="M34.40 106.98C45.03 106.84 50.77 102.93 55.10 98.03C60.14 92.16 61.25 84.33 59.58 78.32C56.64 67.27 49.23 57.48 40.70 48.25C34.12 41.26 29.09 33.56 28.25 26.85C28.11 23.63 29.79 21.26 33.70 21.82C37.90 22.66 37.06 27.27 38.46 30.49C39.16 32.44 40.14 34.26 43.49 34.82C50.91 36.22 53.70 32.86 53.70 28.53C53.84 24.75 52.16 20.42 50.49 17.62C46.15 10.35 35.10 7.27 24.61 9.51C7.13 13.43-1.54 31.33 4.48 44.33C8.67 53.70 15.52 59.02 23.77 66.85C29.23 72.02 34.54 78.87 36.50 84.05C37.20 85.59 37.90 87.69 36.78 89.50C35.94 91.18 33.14 91.32 31.47 90.76C28.25 89.36 26.99 87.13 25.03 85.31C21.68 81.81 15.66 81.25 12.31 85.31C10.21 87.97 9.37 90.76 10.35 93.84C12.59 101.81 22.24 107.12 34.40 106.98ZM102.79 51.74C102.79 45.59 102.79 43.77 102.65 37.62C102.51 35.52 102.51 32.31 105.87 32.31C113.28 31.89 114.96 29.79 115.38 27.13C116.21 22.24 113.70 19.86 109.92 19.02C107.40 18.32 101.11 18.46 97.33 18.74C90.34 19.02 87.83 18.32 77.90 19.86C75.80 20.28 72.02 20.98 69.78 21.96C65.45 23.77 64.61 29.51 67.13 32.17C68.39 33.14 69.50 34.12 72.16 33.84C76.08 33.56 76.78 36.08 76.08 42.09C75.52 46.71 74.40 64.33 74.12 70.76C73.98 74.54 73.56 78.32 73.42 82.09C73.42 84.61 73.28 86.85 74.12 89.78C75.38 94.12 80.13 95.94 84.75 96.64C94.12 98.31 98.87 94.54 100.69 87.97C102.37 81.81 102.65 75.66 102.93 69.50C103.21 63.63 102.93 57.76 102.79 51.74C102.79 51.74 102.79 51.74 102.79 51.74ZM121.39 81.95C120.69 89.08 121.95 93.14 126.56 95.10C131.32 97.20 136.35 98.17 141.53 96.78C144.46 96.08 146.28 94.40 147.12 91.46C148.10 88.38 148.38 85.45 148.80 82.37C149.22 79.57 150.48 78.46 153.41 77.90C160.13 76.92 167.82 77.48 172.57 77.62C175.51 77.62 175.37 79.57 175.51 82.23C175.51 84.33 175.65 86.71 175.65 89.50C175.79 95.80 175.65 98.03 182.50 98.03C187.96 98.17 189.78 94.26 190.05 89.92C190.19 84.19 189.64 78.46 189.22 72.72C188.80 62.23 185.72 43.35 183.20 36.50C180.13 27.83 176.49 20.28 166.28 17.90C161.67 16.92 154.67 17.06 150.20 19.02C142.51 22.38 137.75 26.57 133.70 34.26C130.62 40.00 128.10 46.01 126.56 52.30C123.91 62.09 122.79 72.02 121.39 81.95ZM155.09 65.59C153.55 65.45 153.41 64.89 153.69 62.79C154.39 58.32 155.37 54.12 156.63 51.04C158.31 46.01 161.67 40.14 163.34 38.04C165.02 36.08 167.68 35.24 169.08 37.48C169.64 38.46 170.06 39.44 170.48 40.56C172.15 46.01 173.69 53.00 174.11 59.86C174.25 63.07 174.39 65.73 170.48 65.59C166.14 65.59 160.55 65.03 155.09 65.59ZM222.08 16.92C218.44 16.92 214.95 16.92 211.31 16.92C206.56 17.06 203.76 19.58 202.36 23.77C201.80 25.59 200.82 30.07 200.54 32.03C199.70 37.76 199.14 44.61 198.87 52.44C198.73 65.87 199.01 83.35 202.08 95.52C203.06 99.01 205.16 99.99 207.40 100.55C213.13 101.81 218.44 99.99 223.62 97.89C226.42 96.78 229.35 94.54 229.91 92.44C230.47 90.48 229.91 86.85 229.49 83.63C229.21 80.41 228.51 75.66 228.23 73.14C227.67 67.55 226.42 62.09 226.97 56.36C227.25 54.12 228.09 52.72 230.89 53.00C232.99 53.14 236.76 53.42 239.00 53.28C242.08 53.14 243.90 50.91 244.74 47.97C245.16 46.15 244.88 43.91 243.06 43.07C240.54 41.68 237.74 40.98 234.81 40.56C228.37 39.86 228.37 39.86 228.93 33.70C228.93 33.42 228.93 33.14 229.07 32.72C229.49 29.51 229.91 29.23 233.27 29.09C235.65 29.09 238.44 29.65 240.82 29.65C244.46 29.65 246.27 27.55 246.69 24.89C247.25 21.96 246.13 20.14 242.36 18.88C241.38 18.60 240.40 18.46 239.42 18.18C235.65 17.62 227.95 16.92 222.08 16.92ZM275.36 16.92C271.73 16.92 268.23 16.92 264.59 16.92C259.84 17.06 257.04 19.58 255.64 23.77C255.08 25.59 254.11 30.07 253.83 32.03C252.99 37.76 252.43 44.61 252.15 52.44C252.01 65.87 252.29 83.35 255.36 95.52C256.34 99.01 258.44 99.99 260.68 100.55C266.41 101.81 271.73 99.99 276.90 97.89C279.70 96.78 282.63 94.54 283.19 92.44C283.75 90.48 283.19 86.85 282.77 83.63C282.49 80.41 281.80 75.66 281.52 73.14C280.96 67.55 279.70 62.09 280.26 56.36C280.54 54.12 281.38 52.72 284.17 53.00C286.27 53.14 290.05 53.42 292.28 53.28C295.36 53.14 297.18 50.91 298.02 47.97C298.44 46.15 298.16 43.91 296.34 43.07C293.82 41.68 291.03 40.98 288.09 40.56C281.66 39.86 281.66 39.86 282.22 33.70C282.22 33.42 282.22 33.14 282.36 32.72C282.77 29.51 283.19 29.23 286.55 29.09C288.93 29.09 291.73 29.65 294.10 29.65C297.74 29.65 299.56 27.55 299.98 24.89C300.54 21.96 299.42 20.14 295.64 18.88C294.66 18.60 293.68 18.46 292.70 18.18C288.93 17.62 281.24 16.92 275.36 16.92ZM364.03 62.23C364.03 57.34 362.07 44.19 357.31 38.18C354.52 33.84 349.48 28.95 342.49 26.43C328.92 21.40 313.96 28.11 308.93 39.86C304.17 51.46 304.17 63.21 309.77 74.26C312.14 78.87 314.94 82.79 319.42 86.01C334.80 97.33 357.59 89.08 362.35 72.72C363.47 69.23 363.89 66.15 364.03 62.23ZM350.32 62.93C350.32 64.61 350.18 66.01 350.04 67.41C349.34 74.40 342.07 77.90 336.62 74.40C330.32 70.62 329.90 65.31 330.46 57.48C330.74 53.84 332.14 50.21 334.38 46.85C337.32 42.65 342.35 42.51 345.57 46.43C349.62 51.32 349.90 57.34 350.32 62.93ZM395.77 16.92C392.14 16.92 388.64 16.92 385.00 16.92C380.25 17.06 377.45 19.58 376.05 23.77C375.49 25.59 374.52 30.07 374.24 32.03C373.40 37.76 372.84 44.61 372.56 52.44C372.42 65.87 372.70 83.35 375.77 95.52C376.75 99.01 378.85 99.99 381.09 100.55C386.82 101.81 392.14 99.99 397.31 97.89C400.11 96.78 403.04 94.54 403.60 92.44C404.16 90.48 403.60 86.85 403.18 83.63C402.90 80.41 402.21 75.66 401.93 73.14C401.37 67.55 400.11 62.09 400.67 56.36C400.95 54.12 401.79 52.72 404.58 53.00C406.68 53.14 410.46 53.42 412.69 53.28C415.77 53.14 417.59 50.91 418.43 47.97C418.85 46.15 418.57 43.91 416.75 43.07C414.23 41.68 411.44 40.98 408.50 40.56C402.07 39.86 402.07 39.86 402.63 33.70C402.63 33.42 402.63 33.14 402.77 32.72C403.18 29.51 403.60 29.23 406.96 29.09C409.34 29.09 412.14 29.65 414.51 29.65C418.15 29.65 419.97 27.55 420.39 24.89C420.95 21.96 419.83 20.14 416.05 18.88C415.07 18.60 414.09 18.46 413.11 18.18C409.34 17.62 401.65 16.92 395.77 16.92ZM449.06 16.92C445.42 16.92 441.92 16.92 438.29 16.92C433.53 17.06 430.73 19.58 429.34 23.77C428.78 25.59 427.80 30.07 427.52 32.03C426.68 37.76 426.12 44.61 425.84 52.44C425.70 65.87 425.98 83.35 429.06 95.52C430.04 99.01 432.13 99.99 434.37 100.55C440.10 101.81 445.42 99.99 450.59 97.89C453.39 96.78 456.33 94.54 456.89 92.44C457.45 90.48 456.89 86.85 456.47 83.63C456.19 80.41 455.49 75.66 455.21 73.14C454.65 67.55 453.39 62.09 453.95 56.36C454.23 54.12 455.07 52.72 457.87 53.00C459.96 53.14 463.74 53.42 465.98 53.28C469.05 53.14 470.87 50.91 471.71 47.97C472.13 46.15 471.85 43.91 470.03 43.07C467.52 41.68 464.72 40.98 461.78 40.56C455.35 39.86 455.35 39.86 455.91 33.70C455.91 33.42 455.91 33.14 456.05 32.72C456.47 29.51 456.89 29.23 460.24 29.09C462.62 29.09 465.42 29.65 467.79 29.65C471.43 29.65 473.25 27.55 473.67 24.89C474.23 21.96 473.11 20.14 469.33 18.88C468.35 18.60 467.38 18.46 466.40 18.18C462.62 17.62 454.93 16.92 449.06 16.92Z"></path>
              </g>
    </g>
  </svg>